<svg width="929" height="938" viewBox="0 0 929 938" fill="none" xmlns="http://www.w3.org/2000/svg">
<rect width="929" height="938" fill="white"/>
<circle cx="434" cy="296" r="86.5" fill="#FF008A" stroke="#FF008A"/>
<path d="M425.02 635.4L424.978 635.399L424.935 635.406C377.768 642.685 335.726 623.059 315.182 590.893C294.66 558.76 295.526 514.002 334.397 470.835C373.479 427.434 385.672 384.985 394.135 353.549C394.385 352.618 394.633 351.696 394.877 350.785C398.768 336.295 401.965 324.387 406.878 315.994C409.48 311.549 412.548 308.12 416.43 305.824C420.31 303.53 425.041 302.347 431.007 302.454L431.053 302.455L431.099 302.447C439.728 301.007 448.342 304.406 456.683 311.99C465.027 319.576 473.05 331.311 480.455 346.416C495.262 376.62 507.542 420.175 515.005 470.573C518.358 493.209 517.975 518.242 514.639 541.367C511.303 564.497 505.017 585.682 496.59 600.635C480.451 629.271 448.635 635.825 425.02 635.4Z" fill="#FF008A" stroke="#FF008A"/>
<path d="M518.028 196.686L509.983 261.859C509.841 263.016 508.492 263.575 507.573 262.859L454.387 221.418C453.468 220.702 453.681 219.257 454.767 218.836L515.997 195.104C517.054 194.694 518.167 195.56 518.028 196.686Z" fill="#FF008A" stroke="#FF008A"/>
<path d="M351.058 191.972L415.825 239.272C416.712 239.92 416.625 241.271 415.661 241.799L355.859 274.545C354.895 275.073 353.709 274.419 353.641 273.322L348.676 193.276C348.598 192.008 350.032 191.223 351.058 191.972Z" fill="#FF008A" stroke="#FF008A"/>
<path d="M260.188 615.368C280.988 644.168 407.022 640.5 447.188 633.5V519.868C422.399 548.938 369.523 595.294 331.188 608.868C305.347 618.018 286.386 620.846 277.688 581.868C250.688 460.868 342.653 429.193 359.188 393.868C370.188 370.368 322.688 366.368 285.688 428.368C248.688 490.368 234.188 579.368 260.188 615.368Z" fill="#FF008A" stroke="#FF008A"/>
<circle cx="407" cy="286" r="19" fill="white"/>
<circle cx="470" cy="286" r="19" fill="white"/>
<ellipse cx="407" cy="286" rx="5" ry="19" fill="black"/>
<ellipse cx="470" cy="286" rx="5" ry="19" fill="black"/>
<path d="M437.402 316.5C438.557 314.5 441.443 314.5 442.598 316.5L446.928 324C448.083 326 446.64 328.5 444.33 328.5H435.67C433.36 328.5 431.917 326 433.072 324L437.402 316.5Z" fill="#FFC9E6"/>
<path d="M440 328C436.646 343.896 432.5 353.017 418 343.635" stroke="#FFC9E6" stroke-width="2" stroke-linecap="round"/>
<path d="M440 328C443.354 343.356 447.5 352.168 462 343.105" stroke="#FFC9E6" stroke-width="2" stroke-linecap="round"/>
<line x1="465.416" y1="320.428" x2="502.428" y2="314.584" stroke="white" stroke-linecap="round"/>
<line x1="465.592" y1="320.613" x2="502.617" y2="328.39" stroke="white" stroke-linecap="round"/>
<line x1="465.681" y1="320.809" x2="496.809" y2="338.319" stroke="white" stroke-linecap="round"/>
<line x1="0.5" y1="-0.5" x2="39.9436" y2="-0.5" transform="matrix(-0.988934 -0.148355 -0.16394 0.98647 418 324)" stroke="white" stroke-linecap="round"/>
<line x1="0.5" y1="-0.5" x2="40.2887" y2="-0.5" transform="matrix(-0.980665 0.195695 0.215857 0.976425 418 324)" stroke="white" stroke-linecap="round"/>
<line x1="0.5" y1="-0.5" x2="37.689" y2="-0.5" transform="matrix(-0.881952 0.47134 0.509455 0.860497 418 324)" stroke="white" stroke-linecap="round"/>
<path d="M474 274L474.674 276.073H476.853L475.09 277.354L475.763 279.427L474 278.146L472.237 279.427L472.91 277.354L471.147 276.073H473.326L474 274Z" fill="white"/>
</svg>
